REM DIRINDEX 1\2,1\3,1\4,1\5,1\6,1\7
REM DIRNAME folder01,folder02,folder03,folder04,folder05,folder06,folder07
TITLE ""
FILE "Disk1Track25.mp3" MP3
  TRACK 01 AUDIO
    TITLE "7:cjc104_0340"
    INDEX 01 00:00:00
  TRACK 02 AUDIO
    TITLE "0:"
    INDEX 01 00:01:24
  TRACK 03 AUDIO
    TITLE "7:cjc104_0341"
    INDEX 01 00:02:30
  TRACK 04 AUDIO
    TITLE "0:"
    INDEX 01 00:03:31
  TRACK 05 AUDIO
    TITLE "5:cjc104_0342"
    INDEX 01 00:03:35
  TRACK 06 AUDIO
    TITLE "0:"
    INDEX 01 00:10:12
  TRACK 07 AUDIO
    TITLE "7:cjc104_0343"
    INDEX 01 00:11:17
  TRACK 08 AUDIO
    TITLE "0:"
    INDEX 01 00:12:12
  TRACK 09 AUDIO
    TITLE "5:cjc104_0344"
    INDEX 01 00:12:26
  TRACK 10 AUDIO
    TITLE "0:"
    INDEX 01 00:16:30
  TRACK 11 AUDIO
    TITLE "7:cjc104_0345"
    INDEX 01 00:17:31
  TRACK 12 AUDIO
    TITLE "0:"
    INDEX 01 00:18:33
  TRACK 13 AUDIO
    TITLE "5:cjc104_0346"
    INDEX 01 00:18:50
  TRACK 14 AUDIO
    TITLE "0:"
    INDEX 01 00:22:30
  TRACK 15 AUDIO
    TITLE "7:cjc104_0347"
    INDEX 01 00:23:34
  TRACK 16 AUDIO
    TITLE "0:"
    INDEX 01 00:24:33
  TRACK 17 AUDIO
    TITLE "5:cjc104_0348"
    INDEX 01 00:24:41
  TRACK 18 AUDIO
    TITLE "0:"
    INDEX 01 00:33:21
  TRACK 19 AUDIO
    TITLE "7:cjc104_0349"
    INDEX 01 00:34:24
  TRACK 20 AUDIO
    TITLE "0:"
    INDEX 01 00:35:29
  TRACK 21 AUDIO
    TITLE "5:cjc104_0350"
    INDEX 01 00:35:31
  TRACK 22 AUDIO
    TITLE "0:"
    INDEX 01 00:40:24
  TRACK 23 AUDIO
    TITLE "7:cjc104_0351"
    INDEX 01 00:41:34
  TRACK 24 AUDIO
    TITLE "0:"
    INDEX 01 00:42:45
  TRACK 25 AUDIO
    TITLE "5:cjc104_0352"
    INDEX 01 00:42:70
  TRACK 26 AUDIO
    TITLE "0:"
    INDEX 01 00:51:67
  TRACK 27 AUDIO
    TITLE "7:cjc104_0353"
    INDEX 01 00:53:02
  TRACK 28 AUDIO
    TITLE "0:"
    INDEX 01 00:54:07
  TRACK 29 AUDIO
    TITLE "5:cjc104_0354"
    INDEX 01 00:54:21
  TRACK 30 AUDIO
    TITLE "0:"
    INDEX 01 01:02:63
  TRACK 31 AUDIO
    TITLE "7:cjc104_0355"
    INDEX 01 01:03:67
  TRACK 32 AUDIO
    TITLE "0:"
    INDEX 01 01:04:60
  TRACK 33 AUDIO
    TITLE "5:cjc104_0356"
    INDEX 01 01:05:13
  TRACK 34 AUDIO
    TITLE "0:"
    INDEX 01 01:11:33
  TRACK 35 AUDIO
    TITLE "7:cjc104_0357"
    INDEX 01 01:12:40
  TRACK 36 AUDIO
    TITLE "0:"
    INDEX 01 01:13:55
  TRACK 37 AUDIO
    TITLE "5:cjc104_0358"
    INDEX 01 01:13:65
  TRACK 38 AUDIO
    TITLE "0:"
    INDEX 01 01:23:36
  TRACK 39 AUDIO
    TITLE "7:cjc104_0359"
    INDEX 01 01:24:41
  TRACK 40 AUDIO
    TITLE "0:"
    INDEX 01 01:25:39
  TRACK 41 AUDIO
    TITLE "5:cjc104_0360"
    INDEX 01 01:25:49
  TRACK 42 AUDIO
    TITLE "0:"
    INDEX 01 01:30:18
  TRACK 43 AUDIO
    TITLE "7:cjc104_0361"
    INDEX 01 01:31:24
  TRACK 44 AUDIO
    TITLE "0:"
    INDEX 01 01:32:33
  TRACK 45 AUDIO
    TITLE "5:cjc104_0362"
    INDEX 01 01:32:41
  TRACK 46 AUDIO
    TITLE "0:"
    INDEX 01 01:37:03
  TRACK 47 AUDIO
    TITLE "7:cjc104_0363"
    INDEX 01 01:38:06
  TRACK 48 AUDIO
    TITLE "0:"
    INDEX 01 01:39:15
  TRACK 49 AUDIO
    TITLE "5:cjc104_0364"
    INDEX 01 01:39:41
  TRACK 50 AUDIO
    TITLE "0:"
    INDEX 01 01:44:36
  TRACK 51 AUDIO
    TITLE "7:cjc104_0365"
    INDEX 01 01:45:42
  TRACK 52 AUDIO
    TITLE "0:"
    INDEX 01 01:46:61
  TRACK 53 AUDIO
    TITLE "5:cjc104_0366"
    INDEX 01 01:47:01
  TRACK 54 AUDIO
    TITLE "0:"
    INDEX 01 01:53:21
  TRACK 55 AUDIO
    TITLE "7:cjc104_0367"
    INDEX 01 01:54:31
  TRACK 56 AUDIO
    TITLE "0:"
    INDEX 01 01:55:52
  TRACK 57 AUDIO
    TITLE "5:cjc104_0368"
    INDEX 01 01:55:73
  TRACK 58 AUDIO
    TITLE "0:"
    INDEX 01 02:03:39
  TRACK 59 AUDIO
    TITLE "7:cjc104_0369"
    INDEX 01 02:04:45
  TRACK 60 AUDIO
    TITLE "0:"
    INDEX 01 02:05:58
  TRACK 61 AUDIO
    TITLE "5:cjc104_0370"
    INDEX 01 02:05:68
  TRACK 62 AUDIO
    TITLE "0:"
    INDEX 01 02:13:42
